<svg width="130" height="48" viewBox="0 0 130 48" fill="none" xmlns="http://www.w3.org/2000/svg">
<path d="M124.069 39.8776C123.656 39.7557 123.264 39.5721 122.905 39.3364C122.514 39.0716 122.163 38.7514 121.864 38.3858C121.519 37.9649 121.215 37.5116 120.958 37.0322L120.684 36.5301L122.796 35.2609L123.095 35.8102C123.362 36.3448 123.729 36.8242 124.179 37.2174C124.47 37.4677 124.841 37.6074 125.224 37.6156C125.387 37.6156 125.547 37.5977 125.705 37.5603C125.863 37.5213 126.014 37.4628 126.157 37.3864C126.292 37.3166 126.417 37.2288 126.527 37.1264C126.626 37.0338 126.713 36.9266 126.781 36.8079C126.851 36.6909 126.906 36.5642 126.943 36.4326C126.977 36.3058 126.995 36.1742 126.994 36.0426C126.982 35.7094 126.867 35.3893 126.664 35.1261C126.435 34.8173 126.176 34.5329 125.89 34.2746C125.478 33.8959 125.045 33.5401 124.595 33.2069C124.057 32.8007 123.612 32.4432 123.261 32.1361C122.97 31.8956 122.707 31.6258 122.473 31.3317C122.221 31.0002 122.023 30.6297 121.883 30.2364C121.747 29.8464 121.678 29.4369 121.678 29.0242C121.672 28.3839 121.839 27.7551 122.161 27.2026C122.32 26.9279 122.518 26.6761 122.749 26.4583C122.982 26.2373 123.242 26.0488 123.523 25.8977C123.807 25.7417 124.109 25.6231 124.423 25.5451C124.738 25.4671 125.063 25.4264 125.388 25.4281C125.738 25.4281 126.084 25.4719 126.422 25.5613C126.758 25.6507 127.08 25.7839 127.382 25.9562C127.725 26.1561 128.04 26.4014 128.32 26.6826C128.654 27.0189 128.963 27.3813 129.243 27.7664L129.59 28.2377L127.603 29.7538L127.244 29.2777C127.052 29.0193 126.844 28.7739 126.622 28.5416C126.49 28.4002 126.34 28.2751 126.176 28.1694C126.058 28.0963 125.928 28.0411 125.793 28.0037C125.655 27.9679 125.512 27.9501 125.369 27.9501C125.198 27.9468 125.027 27.9744 124.867 28.0297C124.733 28.0784 124.611 28.1548 124.507 28.2523C124.408 28.3449 124.329 28.4571 124.273 28.5806C124.221 28.7073 124.195 28.8422 124.199 28.9787C124.199 29.0729 124.208 29.1672 124.23 29.2598C124.251 29.3589 124.282 29.4548 124.324 29.5458C124.373 29.6498 124.431 29.7473 124.501 29.8367C124.605 29.9716 124.719 30.0983 124.841 30.2169C124.912 30.2852 125.076 30.4168 125.328 30.6086C125.59 30.8101 125.959 31.0863 126.435 31.4341C126.947 31.8046 127.436 32.2076 127.897 32.6398C128.263 32.9778 128.59 33.3581 128.867 33.7708C129.092 34.1137 129.272 34.4826 129.4 34.8709C129.522 35.2414 129.586 35.6282 129.586 36.0182C129.589 36.5479 129.482 37.0712 129.269 37.5571C129.049 38.0494 128.736 38.4931 128.346 38.8652C127.952 39.2519 127.486 39.5558 126.974 39.7622C126.457 39.9653 125.908 40.0677 125.354 40.0628C124.917 40.0661 124.481 40.0043 124.062 39.8808L124.069 39.8776ZM110.667 39.5282C109.325 38.9919 108.176 38.0624 107.37 36.8616C106.566 35.6607 106.142 34.2453 106.156 32.7991C106.156 32.1491 106.238 31.5023 106.4 30.8734C106.564 30.2494 106.808 29.6498 107.128 29.0892C107.442 28.5318 107.827 28.0183 108.275 27.5617C108.722 27.1083 109.229 26.7183 109.78 26.4014C110.328 26.0829 110.914 25.8376 111.525 25.6718C112.14 25.5093 112.773 25.4264 113.409 25.4281C114.397 25.4183 115.377 25.5987 116.296 25.9578C118.095 26.6939 119.532 28.1109 120.291 29.9001C120.653 30.8019 120.835 31.7656 120.827 32.7373C120.845 33.7009 120.666 34.6597 120.3 35.5518C119.935 36.4439 119.39 37.2532 118.7 37.9259C118.025 38.6101 117.221 39.1544 116.334 39.5233C115.437 39.8857 114.478 40.0677 113.511 40.0596C112.538 40.0693 111.572 39.8889 110.667 39.5298V39.5282ZM108.831 31.4731C108.724 31.9053 108.67 32.3489 108.673 32.7942C108.665 33.4361 108.784 34.0731 109.021 34.6694C109.265 35.2512 109.624 35.7793 110.076 36.2197C110.515 36.6731 111.043 37.0289 111.626 37.2694C112.209 37.5099 112.835 37.6269 113.467 37.6156C113.901 37.6172 114.333 37.5652 114.753 37.4563C115.165 37.3491 115.56 37.1866 115.931 36.9737C116.298 36.7673 116.636 36.5122 116.935 36.2148C117.231 35.9207 117.483 35.5859 117.687 35.2219C117.895 34.8531 118.055 34.4582 118.159 34.0471C118.266 33.6181 118.319 33.1761 118.318 32.7324C118.321 32.2937 118.269 31.8566 118.162 31.4292C118.058 31.0246 117.899 30.6362 117.691 30.2738C117.484 29.9147 117.231 29.5864 116.935 29.2972C116.317 28.6959 115.557 28.2604 114.725 28.0313C114.315 27.9208 113.895 27.8656 113.47 27.8672C113.058 27.8656 112.645 27.9208 112.247 28.0297C111.426 28.2621 110.679 28.6992 110.071 29.2972C109.774 29.5962 109.518 29.9342 109.312 30.3014C109.102 30.6703 108.942 31.0636 108.836 31.4747L108.831 31.4731ZM83.3219 39.8776C82.9091 39.7557 82.5175 39.5737 82.1584 39.3364C81.7651 39.0716 81.4141 38.7514 81.1135 38.3858C80.769 37.9649 80.4667 37.5116 80.21 37.0322L79.9354 36.5301L82.0495 35.2609L82.3485 35.8102C82.615 36.3448 82.9822 36.8242 83.4324 37.2174C83.7232 37.4677 84.0937 37.6074 84.4772 37.6156C84.6397 37.6156 84.8006 37.5977 84.9582 37.5603C85.1159 37.5213 85.267 37.4628 85.41 37.3864C85.5449 37.3166 85.6684 37.2288 85.7805 37.1264C85.8796 37.0338 85.9657 36.9266 86.0356 36.8079C86.1055 36.6909 86.1607 36.5642 86.1981 36.4326C86.2322 36.3058 86.2485 36.1742 86.2485 36.0426C86.2387 35.7111 86.125 35.3893 85.9235 35.1261C85.6944 34.8173 85.436 34.5313 85.15 34.2746C84.7372 33.8959 84.3066 33.5401 83.8565 33.2069C83.3186 32.8007 82.8734 32.4432 82.5224 32.1361C82.2315 31.8956 81.9682 31.6258 81.7342 31.3317C81.4824 31.0002 81.2825 30.6297 81.1444 30.2364C81.0079 29.8464 80.938 29.4369 80.938 29.0242C80.9315 28.3839 81.0989 27.7551 81.4206 27.2026C81.5815 26.9263 81.7781 26.6744 82.0089 26.4534C82.2412 26.2324 82.5012 26.0439 82.7824 25.8928C83.0667 25.7368 83.369 25.6182 83.6842 25.5402C83.9995 25.4622 84.3245 25.4216 84.6495 25.4232C84.9989 25.4232 85.345 25.4671 85.683 25.5564C86.0194 25.6458 86.3411 25.7791 86.6434 25.9513C86.9862 26.1512 87.3015 26.3949 87.581 26.6777C87.9157 27.0141 88.2245 27.3764 88.504 27.7616L88.8517 28.2328L86.8627 29.7522L86.5036 29.2761C86.3102 29.0161 86.1022 28.7674 85.8796 28.5334C85.748 28.3921 85.5985 28.2669 85.4344 28.1629C85.3141 28.0898 85.1857 28.0346 85.0509 27.9972C84.9127 27.9614 84.7714 27.9436 84.6284 27.9436C84.4577 27.9403 84.2871 27.9679 84.1262 28.0232C83.993 28.0719 83.8711 28.1467 83.7671 28.2458C83.6664 28.3368 83.5867 28.4489 83.5331 28.5741C83.4795 28.6992 83.4551 28.8357 83.4584 28.9706C83.4584 29.0648 83.4681 29.1591 83.4876 29.2517C83.5087 29.3508 83.5412 29.4467 83.5819 29.5377C83.6306 29.6417 83.6891 29.7392 83.759 29.8286C83.863 29.9634 83.9751 30.0902 84.097 30.2088C84.1685 30.2771 84.3326 30.4087 84.5829 30.6004C84.8445 30.8019 85.2134 31.0782 85.6879 31.4259C86.1997 31.7981 86.6872 32.2011 87.1487 32.6317C87.5127 32.9713 87.8361 33.3499 88.114 33.7643C88.3399 34.1056 88.5186 34.4761 88.647 34.8644C88.7689 35.2349 88.8306 35.6217 88.8322 36.0117C88.8355 36.5414 88.7282 37.0647 88.517 37.5506C88.0604 38.5499 87.2397 39.3381 86.2225 39.7541C85.7057 39.9572 85.1565 40.0596 84.6024 40.0547C84.1685 40.0579 83.7362 39.9994 83.3202 39.8776H83.3219ZM69.9156 39.5282C68.5734 38.9919 67.4229 38.0624 66.6185 36.8616C65.8141 35.6607 65.39 34.2437 65.4046 32.7991C65.4046 32.1491 65.4859 31.5023 65.6484 30.8734C65.8125 30.2494 66.0562 29.6498 66.3764 29.0892C66.69 28.5318 67.0751 28.0183 67.5236 27.5617C67.9705 27.1083 68.4775 26.7183 69.0284 26.4014C70.1285 25.7579 71.383 25.4232 72.657 25.4281C73.645 25.4183 74.6249 25.5987 75.5446 25.9578C77.3435 26.6939 78.7784 28.1109 79.5389 29.9001C79.9029 30.8019 80.0849 31.7656 80.0751 32.7373C80.093 33.7009 79.9142 34.6597 79.5486 35.5518C79.183 36.4439 78.6386 37.2516 77.948 37.9259C77.2736 38.6101 76.4692 39.1544 75.582 39.5233C74.685 39.8857 73.7262 40.0677 72.7594 40.0596C71.786 40.0693 70.8224 39.8889 69.9172 39.5298H69.914L69.9156 39.5282ZM68.0842 31.4747C67.9754 31.9069 67.9217 32.3506 67.925 32.7958C67.9169 33.4377 68.0355 34.0747 68.2744 34.6711C68.5165 35.2528 68.8756 35.7809 69.3274 36.2213C69.7661 36.6747 70.2942 37.0306 70.8776 37.2711C71.461 37.5116 72.0866 37.6286 72.7187 37.6172C73.1526 37.6188 73.5849 37.5668 74.0041 37.4579C74.4169 37.3507 74.8117 37.1882 75.1806 36.9753C75.5479 36.7689 75.8859 36.5138 76.1849 36.2164C76.479 35.9223 76.7325 35.5876 76.9356 35.2252C77.1436 34.8563 77.3029 34.4614 77.4069 34.0503C77.6181 33.1907 77.6197 32.2937 77.4101 31.4341C77.3061 31.0294 77.1469 30.6411 76.9372 30.2787C76.7309 29.9196 76.4774 29.5913 76.1816 29.3021C75.5641 28.6992 74.8036 28.2637 73.9716 28.0362C73.5621 27.9257 73.1412 27.8704 72.7171 27.8721C72.3044 27.8704 71.8916 27.9257 71.4935 28.0346C70.6729 28.2669 69.9254 28.7024 69.3176 29.3004C69.0202 29.5994 68.7651 29.9374 68.5587 30.3047C68.3491 30.6736 68.1882 31.0684 68.0826 31.4779L68.0842 31.4747ZM103.072 39.7394L101.985 31.9768L98.1451 39.7394H97.0694L93.1986 31.9264L92.1602 39.7394H89.6935L91.6337 25.7449H92.7875L97.6235 35.4933L102.427 25.7449H103.508L105.523 39.7394H103.072ZM63.9974 39.7394L58.1912 33.5742L58.1831 33.5644L56.8116 32.0516L58.214 30.7126H58.2189L63.5229 25.7482H66.9971L60.1575 32.1133L67.3449 39.7378H63.9974V39.7394ZM59.9332 39.7394L55.1606 34.6694V39.7394H52.663V25.7449H55.159V29.7684L59.4604 25.7449H62.9346L56.095 32.1101L63.2807 39.7394H59.9332ZM43.1242 39.7394V25.7449H51.6457V28.1889H45.604V31.0018H51.5937V33.4458H45.604V37.2938H51.5937V39.7378H43.1259L43.1242 39.7394ZM32.9095 39.7394V25.7449H36.0295C36.5089 25.7417 36.9882 25.7726 37.4627 25.8408C37.8576 25.8944 38.2427 26.0001 38.61 26.1544C39.2519 26.4323 39.793 26.8987 40.1635 27.4902C40.352 27.7827 40.4966 28.1012 40.5941 28.4343C40.69 28.7707 40.7387 29.1201 40.7371 29.4694C40.7371 29.7977 40.6965 30.1227 40.612 30.4396C40.5275 30.7516 40.4024 31.0489 40.2366 31.3268C40.0871 31.5787 39.9067 31.8094 39.6987 32.0142C39.9571 32.1491 40.2009 32.3116 40.4251 32.5001C40.6364 32.6772 40.8265 32.8771 40.9922 33.0964C41.158 33.3174 41.2994 33.5563 41.4131 33.8082C41.5317 34.0649 41.6211 34.3347 41.6812 34.6109C41.8356 35.3113 41.8047 36.0393 41.5886 36.7234C41.3741 37.4076 40.9825 38.0218 40.4544 38.5077C40.0156 38.9221 39.494 39.2389 38.9236 39.4372C38.311 39.6452 37.6675 39.7476 37.0207 39.7394H32.9079H32.9095ZM35.3535 37.2954H36.3447C36.725 37.3003 37.1052 37.2792 37.4822 37.2337C37.7195 37.2093 37.9519 37.1541 38.1745 37.0696C38.3337 37.0029 38.4816 36.9136 38.6149 36.8047C38.8797 36.5869 39.078 36.2977 39.1852 35.9727C39.2324 35.8183 39.2567 35.6574 39.2567 35.4966C39.26 35.2934 39.2259 35.0936 39.156 34.9034C39.0845 34.7166 38.9805 34.5459 38.8489 34.3964C38.7042 34.2323 38.532 34.0942 38.3402 33.9869C38.116 33.8634 37.8771 33.7708 37.6269 33.7139C37.3636 33.6587 37.0971 33.6246 36.8274 33.6099C36.4699 33.5839 36.0214 33.5726 35.4819 33.5726H35.3551L35.3519 37.2971L35.3535 37.2954ZM35.3535 31.0928H35.4884C35.8507 31.0961 36.2147 31.0766 36.5755 31.0343C36.8014 31.0116 37.024 30.9628 37.2385 30.8881C37.3864 30.8296 37.5245 30.7499 37.6496 30.6524C37.7682 30.5582 37.8722 30.4477 37.9567 30.3226C38.0429 30.2007 38.1095 30.0658 38.1534 29.9228C38.1972 29.7766 38.2184 29.6254 38.2167 29.4743C38.2216 29.2891 38.1875 29.1038 38.1176 28.9332C38.051 28.7853 37.9502 28.6569 37.8235 28.5562C37.6529 28.4311 37.4595 28.3449 37.2531 28.3011C36.92 28.2231 36.5787 28.1873 36.2375 28.1938H35.3535V31.0961V31.0928ZM22.9109 39.7394L28.2994 28.1889H23.8192V25.7449H32.1084L26.7377 37.2938H31.5006V39.7378H22.9092L22.9109 39.7394ZM13.052 37.7894C13.1137 37.6611 13.1625 37.5278 13.195 37.3897C15.6666 38.6312 18.3852 39.3072 21.1526 39.3641C21.0324 39.3641 20.9121 39.3689 20.7935 39.3689C18.1317 39.3738 15.4976 38.8359 13.052 37.7894ZM9.22024 36.8973C9.22024 36.4732 9.35349 36.0588 9.60211 35.7159C9.57611 35.7533 9.55011 35.7907 9.52574 35.8281C7.18086 34.1933 5.22111 32.0678 3.78136 29.5978C2.34161 27.1278 1.45924 24.3751 1.19274 21.5297C0.836865 21.3704 0.534614 21.1104 0.323364 20.7838C0.112114 20.4572 -0.00163555 20.0753 -0.00163555 19.6853C-0.00163555 19.2953 0.110489 18.9134 0.323364 18.5868C0.534614 18.2602 0.836865 18.0002 1.19274 17.8409C1.48524 14.7453 2.50736 11.7618 4.17461 9.13743C5.84186 6.51143 8.10711 4.31931 10.7851 2.73818C13.4631 1.15543 16.4775 0.230808 19.5812 0.0374329C22.685 -0.154317 25.7904 0.390058 28.6439 1.62831L28.639 1.63318C28.938 1.40243 29.2939 1.25943 29.6692 1.22043C30.0446 1.18143 30.4232 1.24968 30.7629 1.41543C31.1025 1.58118 31.3885 1.83793 31.5884 2.15806C31.7882 2.47818 31.8955 2.84706 31.8955 3.22568C31.8955 3.32806 31.8874 3.43043 31.8727 3.53118C31.8776 3.49381 31.8825 3.45643 31.8874 3.41743C34.255 5.03106 36.2407 7.14193 37.7065 9.60381C39.1722 12.0657 40.0839 14.8168 40.3764 17.6671H40.4787C40.8102 17.6671 41.1369 17.7483 41.4294 17.9043C41.7219 18.0603 41.9705 18.2862 42.1557 18.5608C42.341 18.8354 42.4547 19.1523 42.4872 19.4822C42.5214 19.8121 42.4726 20.1452 42.3475 20.4507C42.2224 20.7578 42.0225 21.0292 41.7674 21.2404C41.5122 21.4517 41.2084 21.5979 40.885 21.6646C40.56 21.7312 40.2252 21.7166 39.9067 21.6239C39.5882 21.5297 39.299 21.3591 39.0634 21.1267C37.6626 21.5248 36.231 21.7978 34.7831 21.9473C32.0596 22.2739 28.5464 22.5063 24.6187 22.5973C22.4656 26.5152 19.9241 30.2072 17.0332 33.6164C15.9624 34.9181 14.6884 36.0393 13.2632 36.9379C13.2584 37.4742 13.0406 37.9844 12.6571 38.3598C12.2752 38.7352 11.7585 38.9432 11.2239 38.9367C10.6876 38.9318 10.1774 38.7141 9.80199 38.3306C9.42661 37.9487 9.21861 37.4319 9.22511 36.8973H9.22024ZM14.6624 31.6843C13.7914 33.2508 13.0666 34.5069 12.5417 35.3568C12.7969 35.5729 12.9935 35.8492 13.1154 36.1596C14.3504 35.2869 15.4667 34.2551 16.4336 33.0916C19.1896 29.8448 21.6206 26.3348 23.6925 22.6136C22.7451 22.6298 21.7782 22.6379 20.7919 22.6379C20.4035 22.6379 20.0167 22.6379 19.6316 22.6331C17.732 26.1203 16.0095 29.2566 14.6624 31.6811V31.6843ZM9.97099 35.3243C9.88161 35.3974 9.79874 35.4771 9.72236 35.5632C9.81336 35.4592 9.91574 35.3649 10.0262 35.2821C9.87999 35.1049 9.73699 34.9213 9.59561 34.7296C7.26374 31.5803 5.44211 25.8554 5.23249 21.7263C4.47686 21.6044 3.79924 21.4679 3.20611 21.3168C3.11511 21.3834 3.01924 21.4403 2.92011 21.4907C3.03061 24.1687 3.71799 26.7898 4.93511 29.1769C6.15224 31.5641 7.86986 33.6619 9.97099 35.3243ZM12.1729 35.1049C12.6035 34.2031 13.2486 32.9258 14.079 31.3658C15.3286 29.0079 16.9471 25.9854 18.7606 22.6282C17.42 22.6119 16.1184 22.5794 14.8704 22.5323C13.624 25.0966 12.5726 27.7502 11.726 30.4721C11.2499 31.9086 10.9639 33.4003 10.8745 34.9116C10.9947 34.8888 11.1182 34.8774 11.2401 34.8774C11.5635 34.8774 11.8836 34.9554 12.1712 35.1049H12.1745H12.1729ZM6.73074 21.9359C6.76161 25.5516 8.27774 31.7639 10.127 34.8758C10.1871 33.3012 10.4682 31.7444 10.9574 30.2462C11.7812 27.5909 12.7985 25.0007 14.0026 22.4949C11.2726 22.3747 8.82049 22.1846 6.80061 21.9424L6.62674 21.9213L6.73074 21.9343V21.9359ZM21.1347 19.8836C20.8471 20.4133 20.5644 20.9366 20.2816 21.4549H20.7886C22.0122 21.4549 23.2082 21.4419 24.3685 21.4176C25.0022 20.2703 25.5954 19.1377 26.1446 18.0278C24.8706 17.9856 23.5479 17.9563 22.1829 17.9466C21.84 18.5738 21.4922 19.2157 21.1364 19.8706V19.8836H21.1347ZM17.212 17.9791C16.5782 19.1263 15.9867 20.2589 15.4375 21.3688C16.7099 21.4111 18.0342 21.4403 19.3976 21.4517C19.7421 20.8147 20.0931 20.1696 20.449 19.5163C20.7366 18.9866 21.021 18.4633 21.3021 17.9449H20.787C19.5682 17.9271 18.3706 17.9417 17.2104 17.9661V17.9791H17.212ZM25.2915 21.3948C28.8957 21.2941 32.1165 21.0731 34.6417 20.7708C36.2862 20.5742 37.6139 20.3759 38.519 20.1923C38.4394 19.8689 38.4394 19.5293 38.519 19.2059C37.6122 19.0207 36.2862 18.8241 34.6417 18.6274C32.526 18.3739 29.9244 18.1773 27.0172 18.0619C26.4826 19.1393 25.9074 20.2524 25.2915 21.3818V21.3948ZM6.94036 20.7708C9.05611 21.0243 11.6577 21.2193 14.5649 21.3363C15.0995 20.2476 15.6764 19.1328 16.2906 18.0034C12.7497 18.1026 9.57936 18.3171 7.07361 18.6112C6.92086 19.3164 6.82011 20.0314 6.76811 20.7513L6.94036 20.7708ZM3.92924 19.0451C4.07224 19.4692 4.07224 19.9274 3.92924 20.3516C4.31436 20.4166 4.74499 20.4816 5.21949 20.5482C5.23411 19.9729 5.27799 19.3993 5.35274 18.8273C4.82949 18.8874 4.35336 18.9606 3.93249 19.0304V19.0434L3.92924 19.0451ZM5.39336 18.5299L5.39986 18.4909L5.41124 18.4194C5.42099 18.3577 5.43074 18.2959 5.44049 18.2358C5.42586 18.3252 5.41124 18.4178 5.39661 18.5169V18.5299H5.39336ZM30.6264 9.13906C29.8009 11.7878 28.7836 14.3732 27.5811 16.8741C30.3111 16.9943 32.7632 17.1828 34.7831 17.4249C36.231 17.5728 37.6626 17.8474 39.0634 18.2456C39.182 18.1286 39.3152 18.0262 39.4599 17.9401C37.4172 14.1522 34.411 10.9721 30.7434 8.72143C30.7775 8.60118 30.81 8.48256 30.8409 8.36231C30.7742 8.61093 30.7027 8.86281 30.6264 9.12118V9.13906ZM7.16786 18.1968L7.18411 18.1302L7.16786 18.1887V18.1968ZM3.20774 18.0522C3.88211 17.8816 4.67024 17.7272 5.55749 17.5923C6.33424 13.8581 8.37361 10.5041 11.3344 8.09743C14.2935 5.69081 17.992 4.37618 21.8059 4.37618C23.0067 4.38268 24.2011 4.55331 25.3549 4.88318C26.0049 4.19256 26.7101 3.55881 27.4674 2.98681C24.8804 2.12718 22.1357 1.84606 19.4285 2.15968C16.7212 2.47331 14.1147 3.37681 11.7926 4.80681C9.47049 6.23518 7.48961 8.15593 5.98974 10.4309C4.48824 12.7076 3.50511 15.2832 3.10536 17.9807C3.13949 18.0034 3.17361 18.0262 3.20936 18.0522H3.20774ZM5.47949 18.0018V17.9969C5.50061 17.8832 5.52174 17.7694 5.54611 17.6557L5.55911 17.5923C5.53474 17.7272 5.50874 17.8637 5.48111 18.0002L5.47949 18.0018ZM39.7442 17.8019C39.8271 17.7694 39.9132 17.7434 39.9994 17.7223C39.5736 15.0931 38.5905 12.5857 37.115 10.3676C35.6395 8.14943 33.709 6.27256 31.4486 4.86368C31.395 5.78831 31.2552 6.70481 31.031 7.60343C35.1244 10.3838 38.4312 14.4642 39.7426 17.8019H39.7442ZM7.38886 17.3892L7.37586 17.4363L7.39049 17.3859V17.3908L7.38886 17.3892ZM7.39536 17.3697C10.0295 17.0837 13.3185 16.8724 16.9617 16.7879C19.0255 13.0472 21.4321 9.50793 24.1507 6.21406C24.2466 6.23031 24.3669 6.24981 24.5147 6.26931H24.5099C24.4254 6.25468 24.3392 6.24168 24.2547 6.22868L24.1507 6.21406C23.5917 6.13443 23.0262 6.09381 22.4624 6.09218C19.0824 6.13281 15.8031 7.24593 13.0959 9.27068C10.3886 11.2954 8.39474 14.1262 7.39861 17.3567L7.39536 17.3697ZM27.508 8.00481C26.26 10.3627 24.6399 13.3852 22.828 16.7424C24.167 16.7587 25.4686 16.7912 26.7166 16.8399C27.963 14.2757 29.0144 11.6221 29.8626 8.90018C29.9812 8.49556 30.0901 8.10718 30.1844 7.73506C30.1372 7.92193 30.0852 8.11206 30.0316 8.30868C29.3426 7.91868 28.6309 7.56931 27.9012 7.26543C28.1141 6.85918 28.3124 6.47731 28.4976 6.11818C29.12 6.43018 29.7326 6.77793 30.329 7.15331C30.4931 6.47243 30.6117 5.78181 30.6816 5.08468C30.42 5.19843 30.1372 5.25531 29.8529 5.25206C29.5685 5.24881 29.2874 5.18543 29.029 5.06518C28.6292 5.86956 28.1174 6.86243 27.5096 8.00806L27.508 8.00481ZM25.0656 6.37331C22.347 9.59568 19.9436 13.0716 17.8912 16.7554C18.8386 16.7392 19.8071 16.7311 20.7902 16.7311C21.1802 16.7311 21.567 16.7311 21.9505 16.7359C23.8501 13.2487 25.5726 10.1124 26.9197 7.68956C27.0465 7.46043 27.1716 7.23781 27.2919 7.02168C26.4192 6.69506 25.5174 6.44806 24.5992 6.28556H24.5781L24.5359 6.27906C24.713 6.30668 24.8885 6.33918 25.064 6.37656L25.0656 6.37331ZM27.9565 5.85006C28.1807 5.45843 28.3887 5.10093 28.5805 4.77431C28.2246 4.47693 27.9809 4.06581 27.8931 3.60918C27.2951 4.08043 26.7296 4.59231 26.2015 5.14156C26.7979 5.34631 27.3845 5.58356 27.9565 5.84843V5.85006ZM25.155 5.08956L25.194 5.04731C25.2444 4.99368 25.2947 4.94168 25.3451 4.88968C25.2817 4.95631 25.2184 5.02293 25.155 5.08956ZM25.9236 5.05218H25.9285H25.9204H25.9252H25.9236ZM25.896 5.04406H25.9025L25.7465 4.99531L25.8976 5.04406H25.896ZM25.5661 4.94656L25.5791 4.94981L25.6116 4.95956L25.5661 4.94656ZM25.5125 4.93031H25.519L25.4995 4.92381L25.5125 4.93031ZM31.4551 4.58906V4.54843C31.4551 4.56306 31.4551 4.57606 31.4551 4.58743V4.58906ZM38.0494 7.37756C37.5862 6.91281 37.297 6.30181 37.2336 5.64856C37.1702 4.99531 37.3344 4.34043 37.6984 3.79443C38.0624 3.24843 38.6067 2.84706 39.234 2.65693C39.8629 2.46681 40.5372 2.49931 41.1434 2.75118C41.7495 3.00306 42.25 3.45643 42.5587 4.03493C42.8675 4.61343 42.9666 5.28293 42.8382 5.92643C42.7099 6.56993 42.3621 7.15006 41.8551 7.56606C41.3481 7.98206 40.7111 8.20956 40.0546 8.20956C39.6825 8.20956 39.312 8.13643 38.9675 7.99506C38.623 7.85206 38.3094 7.64406 38.0461 7.37918L38.0494 7.37756ZM38.8944 4.20718C38.6246 4.47531 38.4572 4.82956 38.4199 5.20818C38.3825 5.58681 38.4767 5.96706 38.688 6.28393C38.8992 6.60081 39.2129 6.83481 39.5769 6.94531C39.9409 7.05581 40.3325 7.03793 40.6835 6.89168C41.0345 6.74706 41.3254 6.48381 41.5057 6.14743C41.6845 5.81268 41.743 5.42431 41.6682 5.05218C41.5935 4.67843 41.3936 4.34368 41.0995 4.10156C40.8054 3.85943 40.4365 3.72781 40.0562 3.72781C39.8401 3.72781 39.6272 3.77006 39.4274 3.85293C39.2275 3.93581 39.0471 4.05606 38.8944 4.20881V4.20718Z" fill="#00258A"/>
<path fillRule="evenodd" clipRule="evenodd" d="M106.956 46.5823V45.539C106.879 45.5033 106.798 45.4757 106.717 45.4545C106.644 45.4383 106.569 45.4302 106.494 45.4302C106.415 45.4269 106.337 45.4399 106.264 45.4708C106.19 45.5017 106.125 45.5488 106.075 45.6089C105.965 45.7568 105.909 45.9404 105.922 46.1257C105.911 46.2963 105.952 46.4669 106.036 46.6148C106.08 46.6717 106.137 46.7172 106.203 46.7464C106.27 46.7757 106.342 46.787 106.413 46.7805C106.511 46.7805 106.608 46.7627 106.699 46.7269C106.792 46.6912 106.878 46.6424 106.956 46.5823ZM107.279 46.8894C107.302 47.1478 107.222 47.4062 107.057 47.606C106.964 47.6889 106.855 47.7507 106.738 47.7897C106.621 47.8287 106.496 47.8433 106.372 47.8335C106.272 47.8335 106.173 47.827 106.073 47.8108C105.976 47.7978 105.882 47.7767 105.787 47.7507V47.4224H105.804C105.856 47.4419 105.94 47.4679 106.056 47.4972C106.168 47.5264 106.283 47.541 106.4 47.541C106.493 47.5443 106.585 47.5297 106.675 47.502C106.74 47.4809 106.797 47.4435 106.844 47.3932C106.884 47.3477 106.915 47.2924 106.93 47.2323C106.948 47.164 106.956 47.0942 106.956 47.0227V46.8488C106.87 46.9187 106.777 46.9772 106.676 47.0227C106.567 47.0649 106.452 47.0844 106.337 47.0795C106.233 47.0844 106.129 47.0633 106.034 47.0194C105.94 46.9772 105.856 46.9122 105.791 46.8309C105.644 46.6278 105.571 46.3808 105.588 46.1322C105.584 45.9859 105.609 45.8397 105.659 45.7015C105.701 45.5878 105.766 45.4822 105.848 45.3912C105.924 45.3099 106.017 45.2449 106.121 45.2027C106.221 45.1588 106.329 45.136 106.439 45.1344C106.533 45.1328 106.628 45.1442 106.719 45.1669C106.801 45.1929 106.881 45.227 106.957 45.2693L106.977 45.1864H107.281V46.8845L107.279 46.8894ZM104.78 46.6359V46.098C104.682 46.1029 104.565 46.1127 104.434 46.124C104.327 46.1305 104.221 46.1484 104.117 46.1744C104.034 46.1955 103.956 46.2378 103.893 46.2979C103.863 46.3288 103.841 46.3645 103.826 46.4052C103.811 46.4442 103.805 46.4864 103.807 46.5287C103.803 46.5758 103.81 46.6213 103.828 46.6652C103.846 46.709 103.872 46.7464 103.907 46.7789C103.995 46.8407 104.102 46.8715 104.21 46.8634C104.317 46.8634 104.422 46.8423 104.52 46.7968C104.611 46.7529 104.699 46.6993 104.778 46.6375L104.78 46.6359ZM105.103 47.1088H104.78V46.9024C104.751 46.9219 104.713 46.9495 104.665 46.9837C104.619 47.0162 104.572 47.0438 104.522 47.0682C104.463 47.0958 104.4 47.1185 104.336 47.1348C104.257 47.1543 104.174 47.1624 104.091 47.1624C104.01 47.1624 103.93 47.1494 103.855 47.1202C103.781 47.0909 103.711 47.047 103.654 46.9902C103.595 46.9333 103.548 46.865 103.517 46.7903C103.486 46.7155 103.472 46.6343 103.473 46.5514C103.465 46.4312 103.495 46.3109 103.56 46.2085C103.625 46.1062 103.719 46.0282 103.833 45.9843C103.966 45.9274 104.107 45.8933 104.252 45.8803C104.416 45.8624 104.591 45.8494 104.777 45.8397V45.7893C104.778 45.7259 104.765 45.6625 104.738 45.6057C104.713 45.5585 104.674 45.5179 104.627 45.4919C104.577 45.4643 104.52 45.4448 104.463 45.4383C104.396 45.4285 104.33 45.4237 104.263 45.4237C104.169 45.4237 104.075 45.4367 103.982 45.4578C103.872 45.4822 103.764 45.5147 103.659 45.5569H103.642V45.2287C103.704 45.2124 103.797 45.1929 103.915 45.1734C104.032 45.1523 104.149 45.1425 104.268 45.1425C104.387 45.1425 104.505 45.1523 104.621 45.175C104.715 45.1945 104.803 45.2335 104.881 45.2904C104.952 45.3424 105.009 45.4139 105.045 45.4952C105.085 45.5943 105.105 45.6999 105.102 45.8072V47.1088H105.103ZM102.071 45.5423H102.053C102.006 45.5309 101.957 45.5228 101.91 45.5179C101.857 45.513 101.803 45.5098 101.751 45.5114C101.652 45.5114 101.554 45.5342 101.463 45.578C101.367 45.6235 101.278 45.682 101.195 45.7487V47.1104H100.872V45.1913H101.195V45.474C101.299 45.3879 101.413 45.3164 101.535 45.2595C101.629 45.2173 101.731 45.1945 101.835 45.1945H101.957C101.982 45.1945 102.021 45.2027 102.071 45.2108V45.5423ZM99.9293 46.6359V46.098C99.8318 46.1029 99.7148 46.1127 99.5848 46.124C99.4776 46.1305 99.3736 46.1484 99.2696 46.1744C99.1851 46.1955 99.1087 46.2378 99.0453 46.2979C98.9885 46.3662 98.9576 46.4523 98.9592 46.54C98.9625 46.6294 98.9966 46.7139 99.0583 46.7773C99.1461 46.839 99.2533 46.8683 99.3606 46.8618C99.4678 46.8618 99.5735 46.8407 99.6693 46.7952C99.762 46.7513 99.8481 46.6977 99.9293 46.6359ZM100.253 47.1072H99.9293V46.9008C99.9001 46.9203 99.8627 46.9479 99.814 46.982C99.7685 47.0145 99.7213 47.0422 99.671 47.0665C99.6125 47.0942 99.5491 47.1169 99.4857 47.1332C99.4061 47.1527 99.3232 47.1608 99.242 47.1608C99.1607 47.1608 99.0811 47.1478 99.0047 47.1185C98.93 47.0893 98.8601 47.0454 98.8032 46.9885C98.7447 46.9317 98.6976 46.8634 98.6667 46.7887C98.6358 46.7139 98.6212 46.6327 98.6245 46.5498C98.618 46.4247 98.6505 46.3012 98.7171 46.1972C98.7837 46.1013 98.8763 46.0265 98.9836 45.9827C99.1168 45.9258 99.2582 45.8917 99.4028 45.8787C99.567 45.8592 99.7408 45.8478 99.9277 45.838V45.7877C99.9293 45.7243 99.9163 45.6609 99.8887 45.604C99.8643 45.5569 99.8253 45.5163 99.7798 45.4903C99.7295 45.4627 99.6726 45.4432 99.6141 45.4367C99.4532 45.4123 99.2891 45.4188 99.1315 45.4562C99.021 45.4805 98.9137 45.5147 98.8081 45.5553H98.7919V45.227C98.8552 45.2108 98.9462 45.1913 99.0648 45.1718C99.1802 45.1523 99.2988 45.1409 99.4158 45.1409C99.5345 45.1409 99.6531 45.1507 99.7701 45.1734C99.8643 45.1929 99.9521 45.2319 100.03 45.2888C100.102 45.3408 100.158 45.4123 100.196 45.4935C100.236 45.5927 100.256 45.6983 100.251 45.8055V47.1088L100.253 47.1072ZM97.7941 47.1072V44.4308H98.1191V47.1072H97.7941ZM96.8516 46.6359V46.098C96.7541 46.1029 96.6371 46.1127 96.5071 46.124C96.3998 46.1305 96.2942 46.1484 96.1902 46.1744C96.1057 46.1955 96.0293 46.2394 95.966 46.2979C95.9091 46.3662 95.8782 46.4523 95.8798 46.54C95.8831 46.6294 95.9172 46.7139 95.979 46.7773C96.0667 46.839 96.174 46.8683 96.2812 46.8618C96.3885 46.8618 96.4941 46.8407 96.5916 46.7952C96.6826 46.7513 96.7703 46.6977 96.85 46.6359H96.8516ZM97.175 47.1072H96.8516V46.9008C96.8223 46.9203 96.785 46.9479 96.7362 46.982C96.6907 47.0145 96.6436 47.0422 96.5932 47.0665C96.5331 47.0942 96.4713 47.1169 96.408 47.1332C96.3283 47.1527 96.2455 47.1608 96.1626 47.1608C96.0813 47.1608 96.0017 47.1478 95.927 47.1185C95.8522 47.0893 95.7823 47.0454 95.7255 46.9885C95.667 46.9317 95.6198 46.8634 95.589 46.7887C95.5581 46.7139 95.5435 46.6327 95.5451 46.5498C95.5386 46.4247 95.5727 46.3012 95.6393 46.1972C95.706 46.1013 95.7986 46.0265 95.9058 45.9827C96.0391 45.9258 96.1805 45.8917 96.3251 45.8787C96.4892 45.8592 96.6647 45.8478 96.85 45.838V45.7877C96.8516 45.7243 96.8386 45.6609 96.811 45.604C96.7866 45.5569 96.7476 45.5163 96.7021 45.4903C96.6517 45.4627 96.5948 45.4432 96.5363 45.4367C96.3755 45.4123 96.2113 45.4188 96.0537 45.4562C95.9432 45.4805 95.836 45.513 95.7303 45.5553H95.7141V45.227C95.7775 45.2108 95.8685 45.1913 95.9871 45.1718C96.1025 45.1523 96.2211 45.1409 96.3381 45.1409C96.4567 45.1409 96.5753 45.1507 96.6923 45.1734C96.7866 45.1929 96.8743 45.2319 96.9523 45.2888C97.0238 45.3408 97.0807 45.4123 97.1165 45.4935C97.1571 45.5927 97.175 45.6983 97.1717 45.8055V47.1088L97.175 47.1072ZM95.3273 45.1913L94.2077 47.814H93.8665L94.2207 47.0145L93.4602 45.1913H93.8112L94.3995 46.6132L94.9942 45.1913H95.3273ZM93.0263 47.1072H92.703V45.1913H93.0263V47.1072ZM93.0475 44.8663H92.6835V44.5332H93.0475V44.8663ZM91.7458 46.5823V45.539C91.6695 45.5033 91.5882 45.4757 91.507 45.4545C91.4338 45.4383 91.3607 45.4302 91.286 45.4302C91.2063 45.4269 91.1283 45.4399 91.0552 45.4708C90.9821 45.5017 90.9171 45.5488 90.8667 45.6089C90.7546 45.7568 90.701 45.9404 90.714 46.1257C90.7026 46.2963 90.7416 46.4669 90.8277 46.6148C90.8716 46.6717 90.9285 46.7172 90.9951 46.7464C91.0617 46.7757 91.1332 46.787 91.2047 46.7805C91.3006 46.7805 91.3965 46.7627 91.4875 46.7269C91.5817 46.6912 91.6695 46.644 91.7491 46.5823H91.7458ZM92.0692 46.8894C92.092 47.1478 92.0123 47.4045 91.8466 47.606C91.754 47.6873 91.6451 47.7507 91.5281 47.7897C91.4111 47.8287 91.286 47.8433 91.1625 47.8335C91.0617 47.8335 90.9626 47.827 90.8635 47.8108C90.766 47.7978 90.6701 47.7767 90.5758 47.7507V47.4224H90.5921C90.6457 47.4419 90.7286 47.4679 90.844 47.4972C90.9561 47.5264 91.0731 47.541 91.1901 47.541C91.2827 47.5443 91.3753 47.5297 91.4631 47.502C91.5281 47.4809 91.5866 47.4419 91.6337 47.3932C91.6743 47.3477 91.7036 47.2924 91.7198 47.2323C91.7377 47.164 91.7458 47.0942 91.7442 47.0227V46.8488C91.6597 46.9187 91.5655 46.9772 91.4647 47.0227C91.3558 47.0649 91.2405 47.0844 91.1251 47.0795C91.0211 47.0828 90.9171 47.0633 90.8228 47.0194C90.7286 46.9772 90.6441 46.9122 90.5791 46.8309C90.4328 46.6278 90.3613 46.3808 90.3776 46.1322C90.3743 45.9859 90.3987 45.8397 90.4491 45.7015C90.493 45.5878 90.558 45.4822 90.6392 45.3912C90.7156 45.3099 90.8082 45.2449 90.9106 45.2027C91.0113 45.1588 91.1186 45.136 91.2291 45.1344C91.3233 45.1328 91.4176 45.1442 91.5086 45.1669C91.5915 45.1929 91.6711 45.227 91.7458 45.2693L91.767 45.1864H92.0708L92.0676 46.8845L92.0692 46.8894ZM89.6788 46.1517C89.6951 45.9567 89.6447 45.7633 89.5358 45.6008C89.4855 45.5439 89.4221 45.4984 89.3522 45.4675C89.2823 45.4367 89.2076 45.4204 89.1312 45.4204C89.0548 45.4204 88.9785 45.4367 88.9102 45.4675C88.842 45.4984 88.7786 45.5439 88.7266 45.6008C88.6307 45.7682 88.5803 45.9567 88.5803 46.1484C88.5803 46.3402 88.6307 46.5287 88.7266 46.696C88.777 46.7545 88.8387 46.8 88.9086 46.8325C88.9785 46.865 89.0548 46.8813 89.1312 46.8813C89.2076 46.8813 89.284 46.865 89.3538 46.8325C89.4237 46.8 89.4855 46.7545 89.5358 46.696C89.6447 46.5368 89.6951 46.345 89.6821 46.1517H89.6788ZM90.012 46.1517C90.0266 46.4198 89.9421 46.683 89.7731 46.8927C89.6886 46.9788 89.5878 47.047 89.4773 47.0925C89.3668 47.1397 89.2482 47.1624 89.128 47.1624C89.0077 47.1624 88.8891 47.138 88.7786 47.0925C88.6681 47.0454 88.5673 46.9772 88.4828 46.8927C88.3268 46.6782 88.2423 46.4182 88.2423 46.1533C88.2423 45.8884 88.3268 45.6284 88.4828 45.4139C88.5673 45.3278 88.6665 45.2595 88.7786 45.2124C88.8891 45.1653 89.0077 45.1409 89.128 45.1409C89.2482 45.1409 89.3668 45.1653 89.4773 45.2124C89.5878 45.2595 89.6886 45.3278 89.7731 45.4139C89.9421 45.6219 90.0282 45.8852 90.012 46.1533V46.1517ZM87.7353 47.1104H87.412V44.4308H87.7353V47.1104ZM86.5783 46.1517C86.593 45.9567 86.5426 45.7633 86.4353 45.6008C86.385 45.5439 86.3216 45.4984 86.2517 45.4675C86.1818 45.4367 86.1071 45.4204 86.0307 45.4204C85.9543 45.4204 85.8796 45.4367 85.8097 45.4675C85.7398 45.4984 85.6781 45.5439 85.6261 45.6008C85.5318 45.7682 85.4815 45.9567 85.4815 46.1484C85.4815 46.3402 85.5318 46.5287 85.6261 46.696C85.6765 46.7545 85.7382 46.8 85.8081 46.8325C85.878 46.865 85.9527 46.8813 86.0307 46.8813C86.1087 46.8813 86.1835 46.865 86.2533 46.8325C86.3232 46.8 86.385 46.7545 86.4353 46.696C86.5426 46.5368 86.5946 46.345 86.58 46.1517H86.5783ZM86.9131 46.1517C86.9277 46.4198 86.8416 46.683 86.6726 46.8927C86.5881 46.9788 86.4873 47.047 86.3768 47.0925C86.2663 47.1397 86.1477 47.1624 86.0275 47.1624C85.9072 47.1624 85.7886 47.138 85.6781 47.0925C85.5676 47.0454 85.4668 46.9772 85.3823 46.8927C85.2263 46.6765 85.1435 46.4182 85.1435 46.1533C85.1435 45.8884 85.228 45.6284 85.3823 45.4139C85.4668 45.3278 85.5676 45.2595 85.6781 45.2124C85.7886 45.1653 85.9072 45.1409 86.0275 45.1409C86.1477 45.1409 86.2663 45.1653 86.3768 45.2124C86.4873 45.2595 86.5881 45.3278 86.6726 45.4139C86.8416 45.6219 86.9277 45.8852 86.9131 46.1533V46.1517ZM84.6576 47.1104H84.3342V46.0152C84.3342 45.9323 84.3293 45.8494 84.318 45.7665C84.3115 45.7032 84.2936 45.6414 84.2611 45.5845C84.2318 45.5358 84.188 45.4984 84.136 45.4773C84.0693 45.4513 83.9978 45.4399 83.9263 45.4415C83.8305 45.4415 83.7362 45.4659 83.6501 45.5065C83.551 45.552 83.4583 45.6073 83.3722 45.6739V47.1072H83.0488V45.1897H83.3722V45.4042C83.4665 45.3245 83.5721 45.2595 83.6842 45.2092C83.7898 45.162 83.902 45.1377 84.0173 45.1377C84.1051 45.1312 84.1945 45.1458 84.2757 45.1783C84.3586 45.2108 84.4317 45.2612 84.4918 45.3245C84.6105 45.4773 84.669 45.6707 84.656 45.864V47.1088L84.6576 47.1104ZM82.6296 47.1104H82.2201L81.6806 46.3727L81.133 47.1104H80.7576L81.5035 46.1517L80.7641 45.1913H81.172L81.7098 45.9144L82.251 45.1913H82.6296L81.8772 46.1354L82.6296 47.1104ZM80.1693 45.9372C80.1758 45.7958 80.1303 45.656 80.041 45.5455C79.9906 45.4968 79.9305 45.4594 79.8638 45.435C79.7972 45.4107 79.7273 45.4009 79.6575 45.4074C79.5811 45.4042 79.5063 45.4155 79.4348 45.4415C79.3633 45.4675 79.2983 45.5082 79.2431 45.5602C79.1407 45.6609 79.079 45.7958 79.0692 45.9388H80.171L80.1693 45.9372ZM80.4813 46.1842H79.0676C79.066 46.2898 79.0838 46.3938 79.1212 46.4913C79.1521 46.5725 79.2008 46.6473 79.2642 46.7058C79.326 46.761 79.3975 46.8033 79.4755 46.8293C79.5632 46.8569 79.6542 46.8715 79.7468 46.8699C79.8817 46.8699 80.015 46.8423 80.1401 46.7919C80.2425 46.7562 80.3367 46.7042 80.4228 46.6375H80.4391V46.9902C80.3302 47.0357 80.2197 47.073 80.106 47.1055C79.989 47.1364 79.8687 47.1527 79.7468 47.1527C79.4738 47.1689 79.2057 47.0763 79.001 46.8943C78.9083 46.7968 78.8368 46.6814 78.7897 46.5563C78.7442 46.4295 78.7247 46.2963 78.7328 46.1614C78.7182 45.89 78.8108 45.6219 78.9896 45.4172C79.0757 45.3262 79.1813 45.253 79.2967 45.2059C79.4121 45.1588 79.5388 45.136 79.664 45.1409C79.7745 45.1344 79.885 45.1507 79.9873 45.1897C80.0913 45.2287 80.184 45.2888 80.262 45.3668C80.4115 45.5472 80.4878 45.7779 80.4716 46.0119L80.4765 46.1825L80.4813 46.1842ZM78.4842 47.0925C78.4192 47.1088 78.3526 47.1234 78.286 47.1332C78.2226 47.1429 78.1592 47.1478 78.0942 47.1478C78.013 47.1543 77.9317 47.1429 77.8553 47.1153C77.779 47.0877 77.7075 47.0454 77.649 46.9885C77.5336 46.8455 77.4783 46.6635 77.4962 46.4815V45.461H77.2817V45.1897H77.4962V44.6372H77.8196V45.1897H78.4858V45.461H77.8196V46.3369C77.8196 46.4377 77.8196 46.5173 77.8277 46.5742C77.831 46.6294 77.8472 46.6847 77.8748 46.7334C77.8976 46.7773 77.9333 46.813 77.9772 46.8342C78.0422 46.8585 78.1105 46.8699 78.1787 46.865C78.234 46.865 78.2892 46.8569 78.3428 46.8407C78.3851 46.8293 78.4257 46.8163 78.4663 46.8017H78.4842V47.0925ZM75.3106 46.6359V46.098C75.2131 46.1029 75.0961 46.1127 74.9645 46.124C74.8588 46.1305 74.7532 46.1484 74.6492 46.1744C74.5647 46.1955 74.4883 46.2378 74.4233 46.2979C74.3665 46.3662 74.3356 46.4523 74.3372 46.54C74.3388 46.6294 74.3746 46.7139 74.4363 46.7773C74.5241 46.839 74.6313 46.8699 74.7386 46.8618C74.8458 46.8618 74.9515 46.8407 75.0473 46.7952C75.14 46.7513 75.2261 46.6977 75.3073 46.6359H75.3106ZM75.3122 47.1088V46.9024C75.283 46.9219 75.2456 46.9495 75.1968 46.9837C75.1513 47.0162 75.1042 47.0438 75.0538 47.0682C74.9953 47.0958 74.932 47.1185 74.8686 47.1348C74.789 47.1543 74.7061 47.1624 74.6232 47.1624C74.542 47.1624 74.4623 47.1494 74.3876 47.1202C74.3128 47.0909 74.2446 47.047 74.1861 46.9902C74.1276 46.9333 74.0805 46.865 74.0496 46.7903C74.0187 46.7155 74.0041 46.6343 74.0057 46.5514C73.9976 46.4312 74.0268 46.3109 74.0918 46.2085C74.1568 46.1062 74.2511 46.0282 74.3648 45.9843C74.4981 45.9274 74.6395 45.8933 74.7841 45.8803C74.9466 45.8624 75.1221 45.8494 75.309 45.8397V45.7893C75.3106 45.7259 75.2976 45.6625 75.27 45.6057C75.2456 45.5585 75.2066 45.5179 75.1611 45.4919C75.1107 45.4643 75.0538 45.4448 74.997 45.4383C74.8361 45.4139 74.672 45.4204 74.5143 45.4578C74.4038 45.4822 74.2966 45.5147 74.1926 45.5569H74.1796V45.2287C74.243 45.2124 74.334 45.1929 74.4526 45.1734C74.568 45.1523 74.6866 45.1425 74.8052 45.1425C74.9238 45.1425 75.0425 45.1523 75.1578 45.175C75.2521 45.1945 75.3398 45.2335 75.4178 45.2904C75.4893 45.3424 75.5462 45.4139 75.582 45.4952C75.6226 45.5943 75.6421 45.6999 75.6372 45.8072V47.1088H75.3122ZM73.788 45.1913L73.0112 47.1088H72.6878L71.916 45.1913H72.2653L72.8601 46.7155L73.45 45.1913H73.788ZM70.59 45.5423H70.5721C70.525 45.5309 70.4762 45.5228 70.4291 45.5179C70.3755 45.513 70.3218 45.5098 70.2682 45.5114C70.1691 45.5114 70.0716 45.5342 69.9806 45.578C69.8847 45.6235 69.7953 45.682 69.7125 45.7487V47.1104H69.3891V45.1913H69.7125V45.474C69.8165 45.3879 69.9302 45.3164 70.0521 45.2595C70.1463 45.2173 70.2487 45.1945 70.3527 45.1945H70.4746C70.499 45.1945 70.538 45.2027 70.5883 45.2108V45.5423H70.59ZM68.4482 46.6359V46.098C68.3507 46.1029 68.2337 46.1127 68.1021 46.124C67.9948 46.1305 67.8892 46.1484 67.7852 46.1744C67.7023 46.1955 67.6243 46.2394 67.561 46.2979C67.5041 46.3662 67.4732 46.4523 67.4748 46.54C67.4781 46.6294 67.5122 46.7139 67.574 46.7773C67.6617 46.839 67.769 46.8683 67.8762 46.8618C67.9835 46.8618 68.0891 46.8407 68.185 46.7952C68.2776 46.7513 68.3637 46.6977 68.445 46.6359H68.4482ZM68.7716 47.1072H68.4482V46.9008C68.419 46.9203 68.3816 46.9479 68.3328 46.982C68.2873 47.0145 68.2402 47.0422 68.1898 47.0665C68.1297 47.0942 68.068 47.1169 68.0046 47.1332C67.925 47.1527 67.8421 47.1608 67.7608 47.1608C67.6796 47.1608 67.6 47.1478 67.5252 47.1185C67.4505 47.0893 67.3806 47.0454 67.3237 46.9885C67.2652 46.9317 67.2181 46.8634 67.1872 46.7887C67.1563 46.7139 67.1417 46.6327 67.145 46.5498C67.1385 46.4247 67.171 46.3012 67.2376 46.1972C67.3042 46.1013 67.3968 46.0265 67.5041 45.9827C67.6373 45.9258 67.7787 45.8917 67.9233 45.8787C68.0858 45.8592 68.2613 45.8478 68.4482 45.838V45.7877C68.4498 45.7243 68.4368 45.6609 68.4092 45.604C68.3848 45.5569 68.3458 45.5163 68.3003 45.4903C68.25 45.4627 68.1931 45.4448 68.1362 45.4367C68.0696 45.4269 68.003 45.422 67.9347 45.422C67.8405 45.422 67.7462 45.435 67.6536 45.4562C67.5431 45.4805 67.4358 45.513 67.3302 45.5553H67.3123V45.227C67.3757 45.2108 67.4667 45.1913 67.587 45.1718C67.7023 45.1507 67.821 45.1409 67.9396 45.1409C68.0582 45.1409 68.1768 45.1507 68.2922 45.1734C68.3865 45.1929 68.4742 45.2319 68.5522 45.2888C68.6237 45.3408 68.6806 45.4123 68.7163 45.4935C68.757 45.5927 68.7765 45.6983 68.7732 45.8055V47.1088L68.7716 47.1072ZM66.6363 47.1072H66.313V44.4308H66.6363V47.1072ZM65.9197 47.0909C65.8547 47.1088 65.7881 47.1218 65.7215 47.1315C65.6581 47.1413 65.5947 47.1462 65.5297 47.1462C65.4485 47.1527 65.3672 47.1413 65.2892 47.1137C65.2128 47.086 65.1413 47.0438 65.0828 46.9869C64.9691 46.8439 64.9138 46.6619 64.9301 46.4799V45.4594H64.7156V45.188H64.9301V44.6355H65.2535V45.188H65.9181V45.4594H65.2535V46.3353C65.2535 46.436 65.2535 46.5157 65.26 46.5725C65.2648 46.6278 65.2811 46.683 65.3087 46.7302C65.3315 46.774 65.3672 46.8098 65.4111 46.8309C65.4745 46.8553 65.5443 46.8667 65.6126 46.8618C65.6678 46.8618 65.7231 46.852 65.7767 46.8374C65.819 46.826 65.8596 46.813 65.9002 46.7984H65.9165V47.0893L65.9197 47.0909ZM64.0932 46.1517C64.1095 45.9567 64.0591 45.7633 63.9502 45.6008C63.8982 45.5439 63.8365 45.4984 63.7666 45.4675C63.6967 45.4367 63.622 45.4204 63.5456 45.4204C63.4692 45.4204 63.3928 45.4367 63.3246 45.4675C63.2563 45.4984 63.193 45.5439 63.141 45.6008C63.0451 45.7682 62.9947 45.9567 62.9947 46.1484C62.9947 46.3402 63.0451 46.5287 63.141 46.696C63.1913 46.7545 63.2531 46.8 63.323 46.8325C63.3928 46.865 63.4692 46.8813 63.5456 46.8813C63.622 46.8813 63.6983 46.865 63.7682 46.8325C63.8381 46.8 63.8998 46.7545 63.9502 46.696C64.0591 46.5368 64.1095 46.345 64.0965 46.1517H64.0932ZM64.4263 46.1517C64.441 46.4198 64.3548 46.6847 64.1858 46.8927C64.1013 46.9788 64.0006 47.047 63.8901 47.0925C63.7796 47.1397 63.661 47.1624 63.5407 47.1624C63.4205 47.1624 63.3018 47.138 63.1913 47.0925C63.0808 47.0454 62.9801 46.9772 62.8956 46.8927C62.7396 46.6782 62.6567 46.4182 62.6567 46.1533C62.6567 45.8884 62.7412 45.6284 62.8956 45.4139C62.9801 45.3278 63.0792 45.2595 63.1913 45.2124C63.3018 45.1653 63.4205 45.1409 63.5407 45.1409C63.661 45.1409 63.7796 45.1653 63.8901 45.2124C64.0006 45.2595 64.1013 45.3278 64.1858 45.4139C64.3565 45.6219 64.4426 45.8852 64.428 46.1533L64.4263 46.1517ZM61.8345 46.6245V45.5407C61.7581 45.5049 61.6785 45.4773 61.5972 45.4562C61.5241 45.4399 61.4493 45.4318 61.373 45.4318C61.2917 45.4269 61.2105 45.4415 61.1357 45.474C61.061 45.5065 60.996 45.5569 60.9456 45.6219C60.8416 45.7747 60.7912 45.9599 60.8026 46.1452C60.7928 46.3255 60.8335 46.5043 60.9196 46.6635C60.9602 46.7237 61.0155 46.7724 61.0805 46.8033C61.1455 46.8342 61.2186 46.8488 61.2901 46.8439C61.3876 46.8439 61.4835 46.8228 61.5712 46.7838C61.6655 46.7432 61.7532 46.6895 61.8328 46.6245H61.8345ZM62.1578 47.8173H61.8345V46.8943C61.7451 46.9739 61.6443 47.0389 61.5355 47.0877C61.4347 47.1299 61.3242 47.1527 61.2153 47.151C61.1097 47.1543 61.0057 47.1315 60.9098 47.086C60.8156 47.0405 60.7327 46.9723 60.6693 46.8878C60.5215 46.6749 60.45 46.4182 60.4646 46.1598C60.463 46.0119 60.4873 45.864 60.5361 45.7227C60.5783 45.6057 60.6417 45.4968 60.7246 45.4042C60.7993 45.3213 60.8903 45.2563 60.9911 45.2108C61.0935 45.1637 61.204 45.1393 61.3145 45.1393C61.4071 45.1393 61.4997 45.149 61.5891 45.1734C61.6736 45.1978 61.7565 45.2319 61.8328 45.2742L61.8523 45.1913H62.1562V47.8157L62.1578 47.8173ZM59.9592 47.1104H59.6358V45.1913H59.9592V47.1104ZM59.9787 44.8695H59.6131V44.5364H59.9787V44.8695ZM58.6787 46.6245V45.5407C58.6023 45.5049 58.5227 45.4773 58.4415 45.4562C58.3667 45.4399 58.292 45.4318 58.2156 45.4318C58.1343 45.4269 58.0531 45.4415 57.98 45.474C57.9052 45.5065 57.8402 45.5569 57.7898 45.6203C57.6858 45.773 57.6355 45.9583 57.6468 46.1435C57.6355 46.3239 57.6777 46.5043 57.7655 46.6619C57.8061 46.722 57.8613 46.7708 57.9263 46.8017C57.9913 46.8325 58.0645 46.8472 58.136 46.8423C58.2335 46.8423 58.3293 46.8212 58.4187 46.7822C58.513 46.7415 58.6007 46.6879 58.6803 46.6229L58.6787 46.6245ZM59.0021 47.8173H58.6787V46.8943C58.591 46.9739 58.4902 47.0389 58.3813 47.0877C58.2806 47.1299 58.1701 47.151 58.0612 47.151C57.9556 47.1543 57.8516 47.1315 57.7557 47.086C57.6615 47.0405 57.5786 46.9723 57.5152 46.8878C57.369 46.6749 57.2958 46.4182 57.3105 46.1598C57.3072 46.0119 57.3316 45.8624 57.382 45.7227C57.4242 45.6057 57.4876 45.4968 57.5705 45.4042C57.6452 45.3213 57.7362 45.2563 57.837 45.2108C57.9377 45.1637 58.0482 45.1393 58.1603 45.1393C58.253 45.1393 58.3456 45.149 58.435 45.1734C58.5195 45.1978 58.6007 45.2319 58.6787 45.2742L58.6982 45.1913H59.0021V47.8173ZM56.4866 46.6392V45.5423C56.4118 45.5065 56.3338 45.4805 56.2526 45.4627C56.1778 45.4464 56.1031 45.4383 56.0267 45.4399C55.9471 45.4367 55.8658 45.4513 55.7927 45.4838C55.7196 45.5163 55.6546 45.5667 55.6042 45.6284C55.4937 45.7844 55.4401 45.9729 55.4531 46.163C55.4417 46.3434 55.4823 46.5222 55.5685 46.6814C55.6107 46.7415 55.666 46.7887 55.7326 46.8195C55.7976 46.8504 55.8707 46.865 55.9438 46.8585C56.0397 46.8585 56.1356 46.8358 56.2233 46.7968C56.3176 46.7562 56.407 46.7025 56.4866 46.6392ZM56.81 47.1104H56.4866V46.9089C56.3988 46.9853 56.3013 47.0487 56.1957 47.0958C56.0917 47.1413 55.9812 47.164 55.8675 47.1624C55.7618 47.1657 55.6562 47.1429 55.562 47.0974C55.4661 47.0519 55.3848 46.982 55.3215 46.8975C55.1752 46.683 55.1037 46.4247 55.12 46.1663C55.1183 46.0184 55.1427 45.8722 55.1915 45.7324C55.2321 45.6138 55.2971 45.5033 55.38 45.4074C55.4547 45.3229 55.5473 45.2563 55.6497 45.2108C55.7521 45.1653 55.8626 45.1409 55.9763 45.1409C56.0673 45.1409 56.1567 45.149 56.2445 45.1718C56.329 45.1962 56.4118 45.2303 56.4898 45.2709V44.434H56.8132V47.112L56.81 47.1104ZM54.3107 46.6375V46.0997C54.2132 46.1045 54.0962 46.1143 53.9646 46.1257C53.859 46.1338 53.7533 46.15 53.6493 46.176C53.5665 46.1972 53.4885 46.2394 53.4251 46.2995C53.3682 46.3678 53.3373 46.4539 53.339 46.5417C53.3422 46.631 53.3763 46.7155 53.4381 46.7789C53.5258 46.8407 53.6331 46.8715 53.7403 46.8634C53.8476 46.8634 53.9532 46.8407 54.0507 46.7968C54.1433 46.7529 54.2295 46.6993 54.3091 46.6359L54.3107 46.6375ZM54.6357 47.1104H54.3123V46.904L54.197 46.9853C54.1515 47.0178 54.1043 47.0454 54.054 47.0698C53.9938 47.0974 53.9321 47.1202 53.8687 47.1364C53.7891 47.1559 53.7062 47.164 53.625 47.164C53.5437 47.1657 53.4641 47.151 53.3877 47.1218C53.3113 47.0925 53.2431 47.0487 53.1862 46.9918C53.1261 46.9349 53.0806 46.8683 53.0497 46.7919C53.0188 46.7172 53.0042 46.6359 53.0075 46.553C53.001 46.4279 53.0335 46.3044 53.1001 46.1988C53.1667 46.1029 53.2593 46.0282 53.3666 45.9843C53.4998 45.9274 53.6428 45.8933 53.7858 45.8803C53.95 45.8624 54.1238 45.8494 54.3107 45.8397V45.7893C54.3123 45.7259 54.2993 45.6625 54.2717 45.6057C54.2473 45.5569 54.2083 45.5179 54.1612 45.4919C54.1108 45.4643 54.054 45.4448 53.9971 45.4383C53.8362 45.4139 53.6721 45.4204 53.5145 45.4578C53.404 45.4822 53.2967 45.5147 53.1911 45.5569H53.1732V45.2287C53.235 45.2124 53.3276 45.1929 53.4462 45.1734C53.5616 45.1523 53.6802 45.1425 53.7988 45.1425C53.9175 45.1425 54.0361 45.1523 54.1515 45.175C54.2457 45.1945 54.3335 45.2335 54.4115 45.2904C54.483 45.3424 54.5398 45.4139 54.5756 45.4952C54.6162 45.5943 54.6357 45.6999 54.6325 45.8072L54.6357 47.1104ZM52.7507 47.0942C52.6857 47.112 52.6191 47.125 52.5525 47.1348C52.4891 47.1445 52.4257 47.1494 52.3607 47.1494C52.2795 47.1543 52.1982 47.1445 52.1218 47.1169C52.0455 47.0893 51.974 47.047 51.9155 46.9918C51.8017 46.8488 51.7465 46.6668 51.7627 46.4848V45.4643H51.5482V45.1929H51.7627V44.6404H52.0861V45.1929H52.7507V45.4643H52.0861V46.3402C52.0861 46.4409 52.0861 46.5205 52.0926 46.5774C52.0975 46.6327 52.1137 46.6879 52.1413 46.7367C52.1641 46.7805 52.1998 46.8163 52.2437 46.8374C52.3087 46.8618 52.377 46.8732 52.4452 46.8683C52.5005 46.8683 52.5557 46.8602 52.6093 46.8439C52.6516 46.8325 52.6922 46.8195 52.7328 46.8049H52.7507V47.0958V47.0942ZM50.1816 47.1104H49.751L48.9791 46.2719L48.7711 46.4702V47.1104H48.4477V44.4324H48.7711V46.1533L49.7038 45.1929H50.1117L49.2196 46.0785L50.1816 47.1104ZM47.7961 47.1104H47.4727V45.1913H47.7961V47.1104ZM47.8172 44.8695H47.4532V44.5364H47.8172V44.8695ZM46.8503 47.1104H46.527V46.0168C46.527 45.9372 46.5237 45.8575 46.5156 45.7779C46.5123 45.7145 46.4961 45.6528 46.4685 45.5943C46.4425 45.5455 46.4035 45.5065 46.3547 45.4822C46.2865 45.4529 46.2133 45.4399 46.1402 45.4448C46.046 45.4448 45.9533 45.4692 45.8705 45.513C45.7746 45.5618 45.6836 45.6187 45.5991 45.6853C45.5991 45.7113 45.6056 45.7422 45.6072 45.7763C45.6088 45.812 45.6072 45.8478 45.6072 45.8803V47.1088H45.2887V46.0168C45.2887 45.9323 45.2855 45.851 45.2773 45.7747C45.2725 45.7113 45.2578 45.6495 45.2302 45.591C45.2058 45.5423 45.1652 45.5049 45.1165 45.4805C45.0482 45.4513 44.9751 45.4383 44.902 45.4432C44.8093 45.4432 44.7183 45.4659 44.6371 45.5082C44.5428 45.5553 44.4551 45.6105 44.3722 45.6755V47.1088H44.0488V45.1913H44.3722V45.4058C44.4648 45.3278 44.5656 45.2628 44.6745 45.2108C44.7752 45.1637 44.8841 45.1393 44.9946 45.1393C45.11 45.136 45.2253 45.1637 45.3261 45.2205C45.4155 45.2742 45.487 45.3538 45.5292 45.448C45.6381 45.3538 45.7583 45.2742 45.8883 45.2108C45.9972 45.162 46.1142 45.1377 46.2328 45.1393C46.3206 45.1328 46.4083 45.1458 46.4896 45.1783C46.5708 45.2108 46.6423 45.2628 46.7008 45.3294C46.8097 45.4854 46.8617 45.6739 46.8503 45.864L46.8552 47.1088L46.8503 47.1104ZM43.5906 46.553C43.5906 46.6359 43.5727 46.7188 43.5353 46.7935C43.498 46.8683 43.4427 46.9333 43.3761 46.982C43.2022 47.1023 42.9942 47.1624 42.783 47.151C42.6513 47.151 42.5197 47.1364 42.393 47.1007C42.2906 47.073 42.1915 47.0357 42.0956 46.9902V46.6278H42.1118C42.2158 46.7058 42.3296 46.7675 42.4515 46.8114C42.5652 46.8569 42.6871 46.8813 42.8106 46.8829C42.926 46.8878 43.0397 46.8634 43.1421 46.8114C43.1811 46.7903 43.212 46.7594 43.2331 46.7204C43.2542 46.6814 43.264 46.6392 43.2623 46.5953C43.264 46.5644 43.2607 46.5319 43.2493 46.5027C43.238 46.4734 43.2201 46.4458 43.1973 46.4247C43.1226 46.3727 43.0381 46.3385 42.9471 46.3255C42.9016 46.3142 42.8415 46.3028 42.7683 46.2882C42.6952 46.2752 42.6253 46.2605 42.5668 46.2443C42.4287 46.2183 42.3036 46.15 42.2077 46.0477C42.1362 45.9583 42.0988 45.8445 42.1021 45.7308C42.1021 45.6528 42.1183 45.5764 42.1508 45.5065C42.185 45.4334 42.237 45.37 42.2987 45.3197C42.3718 45.2612 42.4547 45.2189 42.5441 45.1913C42.6513 45.1588 42.7635 45.1442 42.8756 45.1442C42.9942 45.1442 43.1112 45.1588 43.225 45.1864C43.3257 45.2092 43.4248 45.2433 43.5175 45.2888V45.6333H43.4947C43.4021 45.5683 43.3013 45.5147 43.1957 45.4789C43.0852 45.4383 42.9682 45.4172 42.8496 45.4172C42.7456 45.4139 42.6432 45.4367 42.5506 45.4854C42.5132 45.5049 42.4823 45.5342 42.4596 45.5699C42.4385 45.6057 42.4271 45.6479 42.4287 45.6885C42.4271 45.721 42.432 45.7552 42.4433 45.786C42.4563 45.8169 42.4758 45.8445 42.5002 45.8657C42.5701 45.9144 42.6481 45.9485 42.7326 45.9632C42.7927 45.9762 42.8593 45.9892 42.9325 46.0038C43.0056 46.0184 43.0673 46.0298 43.1161 46.0412C43.2461 46.0655 43.3663 46.1257 43.4622 46.2167C43.5451 46.306 43.5906 46.4247 43.589 46.5482L43.5906 46.553ZM41.3855 46.1517C41.4001 45.9567 41.3497 45.7633 41.2425 45.6008C41.1921 45.5439 41.1287 45.4984 41.0588 45.4675C40.989 45.4367 40.9142 45.4204 40.8378 45.4204C40.7615 45.4204 40.6851 45.4367 40.6168 45.4675C40.547 45.4984 40.4852 45.5439 40.4332 45.6008C40.339 45.7682 40.2886 45.9567 40.2886 46.1484C40.2886 46.3402 40.339 46.5287 40.4332 46.696C40.4836 46.7545 40.5453 46.8 40.6152 46.8325C40.6851 46.865 40.7615 46.8813 40.8378 46.8813C40.9142 46.8813 40.9906 46.865 41.0605 46.8325C41.1303 46.8 41.1921 46.7545 41.2425 46.696C41.3497 46.5368 41.4001 46.345 41.3871 46.1517H41.3855ZM41.7202 46.1517C41.7348 46.4198 41.6487 46.683 41.4797 46.8927C41.3952 46.9788 41.2945 47.047 41.184 47.0925C41.0735 47.1397 40.9548 47.1624 40.8346 47.1624C40.7143 47.1624 40.5957 47.138 40.4852 47.0925C40.3747 47.0454 40.274 46.9772 40.1895 46.8927C40.0335 46.6782 39.949 46.4182 39.949 46.1533C39.949 45.8884 40.0335 45.6284 40.1895 45.4139C40.274 45.3278 40.3731 45.2595 40.4852 45.2124C40.5957 45.1653 40.7143 45.1409 40.8346 45.1409C40.9548 45.1409 41.0735 45.1653 41.184 45.2124C41.2945 45.2595 41.3952 45.3278 41.4797 45.4139C41.6487 45.6219 41.7348 45.8852 41.7186 46.1533L41.7202 46.1517ZM39.4095 47.1104L38.4003 45.9713L38.1452 46.2427V47.1104H37.804V44.5527H38.1452V45.8835L39.3867 44.5527H39.7995L38.6603 45.7552L39.8531 47.1104H39.4095Z" fill="#00258A"/>
<path fillRule="evenodd" clipRule="evenodd" d="M118.063 47.1072H117.739V45.1913H118.063V47.1072ZM118.084 44.8663H117.718V44.5332H118.084V44.8663ZM116.784 46.5823V45.539C116.707 45.5033 116.626 45.4757 116.543 45.4545C116.47 45.4383 116.395 45.4302 116.321 45.4302C116.241 45.4269 116.163 45.4399 116.09 45.4708C116.017 45.5017 115.952 45.5488 115.9 45.6089C115.789 45.7568 115.734 45.9404 115.747 46.1257C115.736 46.2963 115.775 46.4669 115.861 46.6148C115.905 46.6717 115.962 46.7172 116.028 46.7464C116.095 46.7757 116.166 46.787 116.238 46.7805C116.335 46.7805 116.43 46.7627 116.521 46.7269C116.615 46.6912 116.703 46.644 116.782 46.5823H116.784ZM117.107 46.8894C117.13 47.1478 117.05 47.4062 116.885 47.606C116.792 47.6889 116.683 47.7507 116.566 47.7897C116.449 47.8287 116.324 47.8433 116.2 47.8335C116.1 47.8335 116.001 47.827 115.901 47.8108C115.804 47.7978 115.71 47.7767 115.615 47.7507V47.4224H115.633C115.685 47.4419 115.77 47.4679 115.884 47.4972C115.996 47.5264 116.111 47.541 116.228 47.541C116.321 47.5443 116.413 47.5297 116.503 47.502C116.568 47.4809 116.625 47.4435 116.672 47.3932C116.712 47.3477 116.743 47.2924 116.758 47.2323C116.776 47.164 116.784 47.0942 116.784 47.0227V46.8488C116.698 46.9187 116.603 46.9772 116.503 47.0227C116.394 47.0649 116.278 47.0844 116.163 47.0795C116.059 47.0844 115.955 47.0633 115.861 47.0194C115.767 46.9772 115.682 46.9122 115.617 46.8309C115.471 46.6278 115.399 46.3808 115.414 46.1322C115.411 45.9859 115.435 45.8397 115.485 45.7015C115.528 45.5878 115.593 45.4822 115.674 45.3912C115.75 45.3099 115.843 45.2449 115.945 45.2027C116.046 45.1588 116.153 45.136 116.264 45.1344C116.358 45.1328 116.452 45.1442 116.545 45.1669C116.628 45.1929 116.707 45.227 116.784 45.2693L116.803 45.1864H117.107V46.8894ZM114.907 47.1072H114.584V45.1913H114.907V47.1072ZM114.928 44.8663H114.562V44.5332H114.928V44.8663ZM113.942 47.1072H113.618V44.4308H113.942V47.1072ZM113.225 47.0909C113.16 47.1088 113.093 47.1218 113.027 47.1315C112.963 47.1413 112.9 47.1462 112.837 47.1462C112.755 47.1527 112.674 47.1413 112.598 47.1137C112.521 47.086 112.452 47.0438 112.391 46.9869C112.276 46.8439 112.221 46.6619 112.239 46.4799V45.4594H112.024V45.188H112.239V44.6355H112.565V45.188H113.23V45.4594H112.565V46.3353C112.565 46.436 112.565 46.5157 112.572 46.5725C112.577 46.6278 112.593 46.6814 112.621 46.7302C112.643 46.774 112.679 46.8098 112.725 46.8309C112.79 46.8553 112.858 46.8667 112.926 46.8618C112.981 46.8618 113.037 46.852 113.09 46.8374C113.132 46.826 113.173 46.813 113.214 46.7984H113.23L113.227 47.0893L113.225 47.0909ZM111.611 47.1072H111.288V46.0152C111.288 45.9323 111.283 45.8494 111.273 45.7665C111.267 45.7032 111.247 45.6414 111.217 45.5845C111.189 45.5358 111.145 45.4984 111.093 45.4773C111.026 45.4513 110.955 45.4399 110.883 45.4415C110.788 45.4415 110.693 45.4659 110.607 45.5065C110.508 45.552 110.415 45.6073 110.329 45.6739V47.1072H110.006V45.1897H110.329V45.4042C110.424 45.3245 110.529 45.2595 110.643 45.2092C110.747 45.162 110.861 45.1377 110.974 45.1377C111.062 45.1312 111.152 45.1458 111.233 45.1783C111.316 45.2108 111.389 45.2612 111.449 45.3245C111.568 45.4789 111.626 45.6707 111.613 45.864V47.1055L111.611 47.1072ZM109.205 45.9372C109.213 45.7958 109.166 45.6544 109.076 45.5455C109.026 45.4968 108.966 45.4594 108.899 45.435C108.833 45.4107 108.763 45.4025 108.693 45.4074C108.617 45.4042 108.542 45.4155 108.47 45.4415C108.399 45.4675 108.334 45.5082 108.279 45.5602C108.176 45.6609 108.114 45.7958 108.105 45.9388H109.206L109.205 45.9372ZM109.517 46.1825H108.103C108.101 46.2882 108.119 46.3922 108.157 46.4897C108.188 46.5709 108.236 46.6457 108.3 46.7042C108.361 46.761 108.435 46.8017 108.514 46.8277C108.602 46.8553 108.693 46.8699 108.786 46.8683C108.92 46.8683 109.054 46.8407 109.179 46.7903C109.281 46.7545 109.375 46.7025 109.462 46.6359H109.478V46.9885C109.369 47.034 109.258 47.073 109.145 47.1039C109.028 47.1348 108.907 47.151 108.786 47.151C108.651 47.1592 108.516 47.1413 108.387 47.0958C108.259 47.0519 108.142 46.982 108.041 46.8927C107.949 46.7952 107.876 46.6814 107.83 46.5547C107.785 46.4279 107.765 46.2947 107.773 46.1598C107.759 45.8884 107.851 45.6203 108.03 45.4155C108.116 45.3245 108.222 45.2514 108.339 45.2043C108.456 45.1572 108.581 45.1344 108.706 45.1393C108.816 45.1328 108.925 45.149 109.029 45.188C109.132 45.227 109.226 45.2872 109.304 45.3652C109.455 45.5455 109.53 45.7763 109.515 46.0103V46.1809L109.517 46.1825Z" fill="#00258A"/>
<path d="M130 42.3573H22.0853V42.7554H130V42.3573Z" fill="#00258A"/>
</svg>
